<mxfile host="app.diagrams.net" modified="2023-10-11T14:56:15.080Z" agent="Mozilla/5.0 (Windows NT 10.0; Win64; x64; rv:109.0) Gecko/20100101 Firefox/118.0" etag="eHjxc0_ofnCmL-lL3qYx" version="22.0.4" type="github">
  <diagram name="Page-1" id="5d7acffa-a066-3a61-03fe-96351882024d">
    <mxGraphModel dx="1035" dy="565" grid="1" gridSize="10" guides="1" tooltips="1" connect="1" arrows="1" fold="1" page="1" pageScale="1" pageWidth="1100" pageHeight="850" background="#ffffff" math="0" shadow="0">
      <root>
        <mxCell id="0" />
        <mxCell id="1" parent="0" />
        <mxCell id="21ea969265ad0168-6" value="&lt;h4&gt;Signup&lt;/h4&gt;" style="swimlane;html=1;fontStyle=0;childLayout=stackLayout;horizontal=1;startSize=26;horizontalStack=0;resizeParent=1;resizeLast=0;collapsible=1;marginBottom=0;swimlaneFillColor=#ffffff;align=center;rounded=1;shadow=0;comic=0;labelBackgroundColor=none;strokeWidth=1;fontFamily=Verdana;fontSize=12" parent="1" vertex="1">
          <mxGeometry x="600" y="160" width="120" height="80" as="geometry" />
        </mxCell>
        <mxCell id="IohOSPE47dSQovY_GKLV-14" value="&lt;div align=&quot;center&quot;&gt;Username&lt;/div&gt;&lt;div align=&quot;center&quot;&gt;Password&lt;/div&gt;&lt;div align=&quot;center&quot;&gt;Email Address&lt;/div&gt;" style="text;strokeColor=none;fillColor=none;align=center;verticalAlign=middle;spacingLeft=4;spacingRight=4;overflow=hidden;points=[[0,0.5],[1,0.5]];portConstraint=eastwest;rotatable=0;whiteSpace=wrap;html=1;labelBackgroundColor=none;" vertex="1" parent="21ea969265ad0168-6">
          <mxGeometry y="26" width="120" height="54" as="geometry" />
        </mxCell>
        <mxCell id="IohOSPE47dSQovY_GKLV-2" value="Start" style="ellipse;whiteSpace=wrap;html=1;labelBackgroundColor=none;" vertex="1" parent="1">
          <mxGeometry x="500" y="40" width="120" height="80" as="geometry" />
        </mxCell>
        <mxCell id="IohOSPE47dSQovY_GKLV-7" value="" style="endArrow=classic;html=1;rounded=0;exitX=0;exitY=0.719;exitDx=0;exitDy=0;exitPerimeter=0;labelBackgroundColor=none;fontColor=default;" edge="1" parent="1" source="IohOSPE47dSQovY_GKLV-2">
          <mxGeometry relative="1" as="geometry">
            <mxPoint x="488.79999999999995" y="97.51999999999998" as="sourcePoint" />
            <mxPoint x="440" y="160" as="targetPoint" />
          </mxGeometry>
        </mxCell>
        <mxCell id="IohOSPE47dSQovY_GKLV-8" value="&lt;div&gt;Existing user&lt;/div&gt;" style="edgeLabel;resizable=0;html=1;align=center;verticalAlign=middle;labelBackgroundColor=none;" connectable="0" vertex="1" parent="IohOSPE47dSQovY_GKLV-7">
          <mxGeometry relative="1" as="geometry" />
        </mxCell>
        <mxCell id="IohOSPE47dSQovY_GKLV-9" value="" style="endArrow=classic;html=1;rounded=0;exitX=1.016;exitY=0.711;exitDx=0;exitDy=0;exitPerimeter=0;labelBackgroundColor=none;fontColor=default;" edge="1" parent="1" source="IohOSPE47dSQovY_GKLV-2">
          <mxGeometry relative="1" as="geometry">
            <mxPoint x="670" y="120" as="sourcePoint" />
            <mxPoint x="680" y="160" as="targetPoint" />
          </mxGeometry>
        </mxCell>
        <mxCell id="IohOSPE47dSQovY_GKLV-10" value="&lt;div&gt;New User&lt;/div&gt;" style="edgeLabel;resizable=0;html=1;align=center;verticalAlign=middle;labelBackgroundColor=none;" connectable="0" vertex="1" parent="IohOSPE47dSQovY_GKLV-9">
          <mxGeometry relative="1" as="geometry" />
        </mxCell>
        <mxCell id="IohOSPE47dSQovY_GKLV-13" value="&lt;h4&gt;Login&lt;/h4&gt;" style="swimlane;html=1;fontStyle=0;childLayout=stackLayout;horizontal=1;startSize=26;horizontalStack=0;resizeParent=1;resizeLast=0;collapsible=1;marginBottom=0;swimlaneFillColor=#ffffff;align=center;rounded=1;shadow=0;comic=0;labelBackgroundColor=none;strokeWidth=1;fontFamily=Verdana;fontSize=12" vertex="1" parent="1">
          <mxGeometry x="400" y="160" width="120" height="80" as="geometry" />
        </mxCell>
        <mxCell id="IohOSPE47dSQovY_GKLV-15" value="&lt;div align=&quot;center&quot;&gt;Username&lt;/div&gt;&lt;div align=&quot;center&quot;&gt;Password&lt;/div&gt;" style="text;strokeColor=none;fillColor=none;align=center;verticalAlign=middle;spacingLeft=4;spacingRight=4;overflow=hidden;points=[[0,0.5],[1,0.5]];portConstraint=eastwest;rotatable=0;whiteSpace=wrap;html=1;labelBackgroundColor=none;" vertex="1" parent="IohOSPE47dSQovY_GKLV-13">
          <mxGeometry y="26" width="120" height="54" as="geometry" />
        </mxCell>
        <mxCell id="IohOSPE47dSQovY_GKLV-30" value="Reset Password" style="swimlane;html=1;fontStyle=0;childLayout=stackLayout;horizontal=1;startSize=26;horizontalStack=0;resizeParent=1;resizeLast=0;collapsible=1;marginBottom=0;swimlaneFillColor=#ffffff;align=center;rounded=1;shadow=0;comic=0;labelBackgroundColor=none;strokeWidth=1;fontFamily=Verdana;fontSize=12" vertex="1" parent="1">
          <mxGeometry x="160" y="160" width="120" height="80" as="geometry" />
        </mxCell>
        <mxCell id="IohOSPE47dSQovY_GKLV-31" value="Email Address" style="text;strokeColor=none;fillColor=none;align=center;verticalAlign=middle;spacingLeft=4;spacingRight=4;overflow=hidden;points=[[0,0.5],[1,0.5]];portConstraint=eastwest;rotatable=0;whiteSpace=wrap;html=1;labelBackgroundColor=none;" vertex="1" parent="IohOSPE47dSQovY_GKLV-30">
          <mxGeometry y="26" width="120" height="24" as="geometry" />
        </mxCell>
        <mxCell id="IohOSPE47dSQovY_GKLV-37" value="" style="endArrow=none;dashed=1;html=1;rounded=0;exitX=0.002;exitY=1.012;exitDx=0;exitDy=0;exitPerimeter=0;entryX=0.993;entryY=1.061;entryDx=0;entryDy=0;entryPerimeter=0;" edge="1" parent="IohOSPE47dSQovY_GKLV-30" source="IohOSPE47dSQovY_GKLV-31" target="IohOSPE47dSQovY_GKLV-31">
          <mxGeometry width="50" height="50" relative="1" as="geometry">
            <mxPoint x="360" y="100" as="sourcePoint" />
            <mxPoint x="110" y="50" as="targetPoint" />
          </mxGeometry>
        </mxCell>
        <mxCell id="IohOSPE47dSQovY_GKLV-34" value="" style="endArrow=classic;html=1;rounded=0;" edge="1" parent="1">
          <mxGeometry relative="1" as="geometry">
            <mxPoint x="400" y="199.91" as="sourcePoint" />
            <mxPoint x="280" y="199" as="targetPoint" />
          </mxGeometry>
        </mxCell>
        <mxCell id="IohOSPE47dSQovY_GKLV-35" value="Forgot Password" style="edgeLabel;resizable=0;html=1;align=center;verticalAlign=middle;" connectable="0" vertex="1" parent="IohOSPE47dSQovY_GKLV-34">
          <mxGeometry relative="1" as="geometry">
            <mxPoint as="offset" />
          </mxGeometry>
        </mxCell>
        <mxCell id="IohOSPE47dSQovY_GKLV-36" value="" style="endArrow=classic;html=1;rounded=0;entryX=0.993;entryY=0.232;entryDx=0;entryDy=0;entryPerimeter=0;" edge="1" parent="1" target="IohOSPE47dSQovY_GKLV-15">
          <mxGeometry width="50" height="50" relative="1" as="geometry">
            <mxPoint x="600" y="199.41" as="sourcePoint" />
            <mxPoint x="550" y="199.41" as="targetPoint" />
          </mxGeometry>
        </mxCell>
        <mxCell id="IohOSPE47dSQovY_GKLV-39" value="&lt;div align=&quot;center&quot;&gt;New Password&lt;/div&gt;" style="text;html=1;strokeColor=none;fillColor=none;align=center;verticalAlign=middle;whiteSpace=wrap;rounded=0;" vertex="1" parent="1">
          <mxGeometry x="160" y="211" width="120" height="29" as="geometry" />
        </mxCell>
        <mxCell id="IohOSPE47dSQovY_GKLV-41" value="" style="endArrow=classic;html=1;rounded=0;exitX=1;exitY=0.5;exitDx=0;exitDy=0;" edge="1" parent="1" source="IohOSPE47dSQovY_GKLV-39">
          <mxGeometry width="50" height="50" relative="1" as="geometry">
            <mxPoint x="280" y="230" as="sourcePoint" />
            <mxPoint x="400" y="226" as="targetPoint" />
          </mxGeometry>
        </mxCell>
      </root>
    </mxGraphModel>
  </diagram>
</mxfile>
